#!OML:ASF F:\VICON\USERDATA\INSTALL\rory3\rory3.ASF
:FULLY-SPECIFIED
:DEGREES
1033
root 2.65779 18.0492 0.885313 -3.12242 42.4694 -17.6793
lowerback 5.28539 4.40188 -1.70372
upperback 0.193494 5.65466 -6.49347
thorax -2.25927 2.84437 -6.1901
lowerneck -22.2774 -12.4756 -14.2961
upperneck 18.825 -16.0472 13.433
head 12.2063 -6.77522 4.34465
rclavicle -2.38542e-014 -1.27222e-014
rhumerus 37.0203 10.2076 -8.48279
rradius 55.135
rwrist 46.4912
rhand -58.145 0.483693
rfingers 7.12502
rthumb -30.3842 -27.0333
lclavicle -2.38542e-014 -1.27222e-014
lhumerus -30.6383 3.01527 61.516
lradius 51.1287
lwrist -5.32336
lhand -16.2034 21.4204
lfingers 7.12502
lthumb 10.0039 51.1627
rfemur -4.8116 -15.0444 25.559
rtibia 23.1041
rfoot -21.5771 -26.9724
rtoes 2.79905
lfemur -24.4934 -14.0233 -0.740599
ltibia 29.6074
lfoot -12.3323 -19.4973
ltoes -4.46509
1034
root 2.65571 18.0537 0.882271 -3.01687 42.6421 -17.6919
lowerback 5.20036 4.36458 -1.69004
upperback 0.237162 5.61381 -6.37182
thorax -2.18125 2.82439 -6.05552
lowerneck -22.3683 -12.531 -14.3299
upperneck 18.7698 -16.0623 13.3224
head 12.1944 -6.79376 4.30015
rclavicle 4.77083e-015 -3.49861e-014
rhumerus 37.3593 7.65511 -7.92251
rradius 53.72
rwrist 46.1879
rhand -57.9662 0.387341
rfingers 7.12502
rthumb -30.2136 -27.161
lclavicle 4.77083e-015 -3.49861e-014
lhumerus -30.5926 2.88856 61.8176
lradius 51.3741
lwrist -5.18427
lhand -16.4402 21.5769
lfingers 7.12502
lthumb 9.77552 51.33
rfemur -4.76519 -15.0575 25.6254
rtibia 22.759
rfoot -21.7724 -27.1187
rtoes 2.96392
lfemur -24.6382 -14.0071 -0.708515
ltibia 29.5075
lfoot -11.9709 -19.6691
ltoes -3.33065
1035
root 2.65318 18.0572 0.878112 -2.80112 42.8454 -17.5959
lowerback 5.17455 4.28864 -1.6804
upperback 0.264695 5.5168 -6.31501
thorax -2.15181 2.77615 -5.99092
lowerneck -22.6298 -12.5952 -14.4649
upperneck 18.9011 -16.0791 13.2925
head 12.3051 -6.7987 4.29741
rclavicle 3.49861e-014 -3.81667e-014
rhumerus 37.8414 5.07884 -7.67366
rradius 52.1505
rwrist 46.1844
rhand -57.866 -0.0807949
rfingers 7.12502
rthumb -30.118 -27.6466
lclavicle 3.49861e-014 -3.81667e-014
lhumerus -30.5522 2.75452 62.0076
lradius 51.6287
lwrist -4.96273
lhand -16.4648 21.89
lfingers 7.12502
lthumb 9.75173 51.6442
rfemur -4.79031 -15.0474 25.6094
rtibia 22.4498
rfoot -21.9579 -27.2856
rtoes 3.46333
lfemur -24.8633 -13.9544 -0.782634
ltibia 29.399
lfoot -12.0905 -19.8831
ltoes -4.21162
1036
root 2.64897 18.0591 0.876802 -2.76262 43.0576 -17.6644
lowerback 5.27434 4.20392 -1.54461
upperback 0.262272 5.40669 -6.25776
thorax -2.21299 2.71878 -6.00925
lowerneck -22.9259 -12.6226 -14.4004
upperneck 19.0847 -16.0727 13.1193
head 12.4045 -6.79341 4.21461
rclavicle -8.74653e-014 -6.36111e-015
rhumerus 38.4304 2.6224 -7.62004
rradius 50.4206
rwrist 46.0912
rhand -57.6662 -0.0655859
rfingers 7.12502
rthumb -29.9274 -27.666
lclavicle -8.74653e-014 -6.36111e-015
lhumerus -30.4884 2.58694 62.0972
lradius 51.7588
lwrist -4.75546
lhand -16.3988 21.9385
lfingers 7.12502
lthumb 9.8154 51.6898
rfemur -4.73315 -14.9764 25.7092
rtibia 22.1611
rfoot -22.5566 -27.2988
rtoes 4.98227
lfemur -25.0415 -13.79 -0.764412
ltibia 29.2768
lfoot -12.4849 -20.2418
ltoes -6.20462
1037
root 2.64754 18.0615 0.877031 -2.80903 43.2146 -17.8472
lowerback 5.34042 4.17668 -1.2681
upperback 0.213792 5.38087 -6.2536
thorax -2.27746 2.70206 -6.16724
lowerneck -23.0488 -12.6791 -14.254
upperneck 19.1972 -16.1758 13.0231
head 12.4627 -6.83126 4.12908
rclavicle 4.77083e-014 -1.27222e-014
rhumerus 38.844 0.307578 -7.66468
rradius 48.75
rwrist 45.9726
rhand -57.307 -0.545391
rfingers 7.12502
rthumb -29.5846 -28.2071
lclavicle 4.77083e-014 -1.27222e-014
lhumerus -30.4642 2.25317 62.0797
lradius 51.917
lwrist -4.62264
lhand -16.3885 21.4881
lfingers 7.12502
lthumb 9.82532 51.2389
rfemur -4.67567 -14.9757 25.8994
rtibia 21.8604
rfoot -22.7772 -27.3981
rtoes 5.44484
lfemur -25.1627 -13.6047 -0.648486
ltibia 29.1508
lfoot -12.6325 -20.5805
ltoes -7.16451
1038
root 2.64761 18.0692 0.876685 -2.68074 43.3607 -17.872
lowerback 5.33627 4.1363 -1.0591
upperback 0.149249 5.3362 -6.3147
thorax -2.32134 2.67695 -6.35013
lowerneck -23.1272 -12.7395 -14.2287
upperneck 19.2474 -16.2921 13.1046
head 12.5222 -6.86576 4.12739
rclavicle 4.92986e-014 2.8625e-014
rhumerus 39.3447 -2.07304 -8.06058
rradius 46.9838
rwrist 46.0835
rhand -57.1043 -0.809392
rfingers 7.12502
rthumb -29.391 -28.5052
lclavicle 4.92986e-014 2.8625e-014
lhumerus -30.6636 1.78568 61.921
lradius 52.3768
lwrist -4.34595
lhand -16.582 22.0772
lfingers 7.12502
lthumb 9.63869 51.8367
rfemur -4.68629 -15.029 25.9845
rtibia 21.5287
rfoot -22.6576 -27.6785
rtoes 4.75772
lfemur -25.3084 -13.4996 -0.615611
ltibia 29.0368
lfoot -12.5312 -20.8103
ltoes -6.94755
1039
root 2.64722 18.0773 0.875043 -2.56643 43.5179 -17.893
lowerback 5.36846 4.06168 -0.909217
upperback 0.113687 5.24246 -6.31747
thorax -2.37191 2.62744 -6.43682
lowerneck -23.1013 -12.7366 -14.1347
upperneck 19.073 -16.2854 13.0505
head 12.4328 -6.86753 4.09296
rclavicle -9.14409e-014 3.18055e-015
rhumerus 40.0377 -4.52445 -8.61006
rradius 45.2759
rwrist 46.0334
rhand -57.0786 0.038662
rfingers 7.12502
rthumb -29.3665 -27.6615
lclavicle -9.14409e-014 3.18055e-015
lhumerus -31.0311 1.37024 61.8009
lradius 53.0846
lwrist -3.98152
lhand -16.8148 23.6924
lfingers 7.12502
lthumb 9.41404 53.4621
rfemur -4.65389 -15.0159 26.061
rtibia 21.1816
rfoot -22.7109 -27.8884
rtoes 4.62383
lfemur -25.4482 -13.5293 -0.562126
ltibia 28.9279
lfoot -12.4052 -20.9142
ltoes -6.70849
1040
root 2.64202 18.0819 0.873677 -2.60838 43.666 -18.0612
lowerback 5.50016 4.01372 -0.729226
upperback 0.0669468 5.18117 -6.28162
thorax -2.4878 2.59201 -6.51118
lowerneck -22.761 -12.6607 -14.118
upperneck 18.7144 -16.2147 13.1679
head 12.2318 -6.8456 4.15979
rclavicle 2.14687e-014 3.81667e-014
rhumerus 40.6583 -6.96436 -9.35496
rradius 43.7875
rwrist 45.9555
rhand -57.0467 0.626902
rfingers 7.12502
rthumb -29.3361 -27.0786
lclavicle 2.14687e-014 3.81667e-014
lhumerus -31.243 1.00608 61.8159
lradius 53.5987
lwrist -3.66968
lhand -17.092 24.7712
lfingers 7.12502
lthumb 9.14653 54.5528
rfemur -4.61497 -14.8755 26.2636
rtibia 20.8773
rfoot -22.9475 -28.161
rtoes 4.68238
lfemur -25.5509 -13.5662 -0.386126
ltibia 28.8048
lfoot -12.3531 -21.0187
ltoes -6.96301
1041
root 2.63631 18.0854 0.874877 -2.64629 43.842 -18.1824
lowerback 5.62669 3.99999 -0.59294
upperback 0.0562151 5.16573 -6.26859
thorax -2.56052 2.58127 -6.58538
lowerneck -22.5681 -12.6448 -14.1147
upperneck 18.5323 -16.2193 13.2534
head 12.1362 -6.85072 4.1957
rclavicle 4.45278e-014 1.90833e-014
rhumerus 41.2916 -9.57928 -10.5172
rradius 42.3627
rwrist 46.2032
rhand -56.691 -1.00713
rfingers 7.12502
rthumb -28.9964 -28.7715
lclavicle 4.45278e-014 1.90833e-014
lhumerus -31.1975 0.727044 61.8765
lradius 53.8345
lwrist -3.51738
lhand -17.144 24.8989
lfingers 7.12502
lthumb 9.09635 54.6828
rfemur -4.53164 -14.7481 26.4122
rtibia 20.5814
rfoot -23.4557 -28.2642
rtoes 5.70418
lfemur -25.6296 -13.5593 -0.268869
ltibia 28.6768
lfoot -12.2731 -21.2325
ltoes -7.09886
1042
root 2.63517 18.0888 0.875524 -2.55884 44.0502 -18.1241
lowerback 5.73596 3.97268 -0.545056
upperback 0.0475703 5.12749 -6.29251
thorax -2.62837 2.56048 -6.6459
lowerneck -22.5901 -12.6819 -14.0156
upperneck 18.5349 -16.2762 13.1561
head 12.1295 -6.87919 4.13042
rclavicle -5.08889e-014 0
rhumerus 42.0435 -12.122 -11.8069
rradius 41.0156
rwrist 46.4371
rhand -55.8399 -5.65261
rfingers 7.12502
rthumb -28.1832 -33.5539
lclavicle -5.08889e-014 0
lhumerus -30.9693 0.815385 61.9696
lradius 53.7075
lwrist -3.75119
lhand -17.2865 24.6505
lfingers 7.12502
lthumb 8.95893 54.4403
rfemur -4.45689 -14.8013 26.3877
rtibia 20.3139
rfoot -23.6343 -28.379
rtoes 5.9732
lfemur -25.6758 -13.6035 -0.310682
ltibia 28.5101
lfoot -11.9102 -21.3737
ltoes -5.95413
1043
root 2.64038 18.0965 0.880546 -2.35514 44.2894 -18.0289
lowerback 5.68167 3.91094 -0.520132
upperback 0.0274554 5.04819 -6.31715
thorax -2.62311 2.52071 -6.67736
lowerneck -22.7106 -12.732 -14.0318
upperneck 18.6075 -16.3202 13.1025
head 12.1816 -6.89852 4.09886
rclavicle -1.27222e-014 -2.8625e-014
rhumerus 42.938 -14.478 -13.1664
rradius 39.9023
rwrist 46.0268
rhand -55.2564 -3.66799
rfingers 7.12502
rthumb -27.6253 -31.6599
lclavicle -1.27222e-014 -2.8625e-014
lhumerus -30.5969 1.25981 62.1657
lradius 53.4179
lwrist -4.2745
lhand -17.3156 24.4458
lfingers 7.12502
lthumb 8.93083 54.2368
rfemur -4.47595 -15.0037 26.323
rtibia 20.0944
rfoot -23.5899 -28.4314
rtoes 5.83928
lfemur -25.7745 -13.7089 -0.36596
ltibia 28.3113
lfoot -11.319 -21.4127
ltoes -3.98861
1044
root 2.64706 18.105 0.890366 -2.06155 44.542 -17.7914
lowerback 5.55161 3.84147 -0.693539
upperback 0.0145121 4.94945 -6.33704
thorax -2.58749 2.4742 -6.58342
lowerneck -22.7758 -12.7424 -14.0666
upperneck 18.6737 -16.3175 13.084
head 12.2198 -6.8972 4.0959
rclavicle 7.95139e-016 2.54444e-014
rhumerus 43.9008 -16.7182 -14.6743
rradius 39.0635
rwrist 45.4171
rhand -54.5141 -3.11685
rfingers 7.12502
rthumb -26.9153 -31.2203
lclavicle 7.95139e-016 2.54444e-014
lhumerus -30.4795 1.44443 62.2996
lradius 53.4259
lwrist -4.41813
lhand -17.3377 24.4303
lfingers 7.12502
lthumb 8.90944 54.2222
rfemur -4.48828 -15.2155 26.1418
rtibia 19.9213
rfoot -23.5678 -28.4422
rtoes 5.66143
lfemur -25.8625 -13.7379 -0.571051
ltibia 28.1244
lfoot -11.151 -21.5982
ltoes -3.98642
1045
root 2.64548 18.1098 0.889403 -1.94349 44.661 -17.7465
lowerback 5.60672 3.86039 -0.684082
upperback 0.0568186 4.97559 -6.31545
thorax -2.57273 2.48793 -6.56981
lowerneck -22.9809 -12.8363 -14.0403
upperneck 18.7076 -16.4003 12.9568
head 12.2657 -6.93614 4.01749
rclavicle 9.46215e-014 5.725e-014
rhumerus 44.9302 -19.1026 -16.3904
rradius 38.135
rwrist 45.7842
rhand -54.6774 -4.59716
rfingers 7.12502
rthumb -27.0716 -32.6764
lclavicle 9.46215e-014 5.725e-014
lhumerus -30.3751 1.27789 62.4817
lradius 53.6661
lwrist -4.19119
lhand -17.4817 24.4576
lfingers 7.12502
lthumb 8.7705 54.2554
rfemur -4.49605 -15.162 26.1447
rtibia 19.7348
rfoot -23.6847 -28.5137
rtoes 5.90056
lfemur -25.9534 -13.6876 -0.606962
ltibia 27.9793
lfoot -11.4938 -21.7922
ltoes -5.88375
1046
root 2.63863 18.1093 0.878742 -1.99694 44.6795 -18.005
lowerback 5.77014 3.91583 -0.406279
upperback 0.0551747 5.06092 -6.24409
thorax -2.63919 2.5255 -6.67098
lowerneck -23.2301 -13.0064 -14.0511
upperneck 18.7789 -16.5536 12.7461
head 12.338 -7.01586 3.89524
rclavicle 4.13472e-014 -1.90833e-014
rhumerus 46.0507 -21.4426 -18.2786
rradius 37.2429
rwrist 46.532
rhand -55.2082 -5.84715
rfingers 7.12502
rthumb -27.5793 -33.8464
lclavicle 4.13472e-014 -1.90833e-014
lhumerus -30.1771 1.14105 62.7251
lradius 53.7977
lwrist -4.00686
lhand -17.5053 24.502
lfingers 7.12502
lthumb 8.74774 54.3007
rfemur -4.6146 -14.9233 26.4156
rtibia 19.5625
rfoot -23.8351 -28.662
rtoes 6.2954
lfemur -26.1258 -13.5022 -0.394084
ltibia 27.8687
lfoot -11.6113 -21.9572
ltoes -6.89558
